<svg width="90" height="20" viewBox="0 0 90 20" fill="none" xmlns="http://www.w3.org/2000/svg">
<path fill-rule="evenodd" clip-rule="evenodd" d="M13.3335 2.91669C13.3335 2.07965 12.8628 1.66669 12.0835 1.66669H7.91687C7.13756 1.66669 6.66687 2.07965 6.66687 2.91669C6.66687 3.75372 7.13756 4.16669 7.91687 4.16669L12.0835 4.16669C12.8628 4.16669 13.3335 3.75372 13.3335 2.91669ZM1.66748 6.45835C1.66748 5.3779 2.12306 5.00002 3.12581 5.00002H16.8758C17.8786 5.00002 18.3341 5.3779 18.3341 6.45835C18.3341 7.83353 17.3462 7.91669 16.2502 7.91669V14.3334C16.2502 16.5425 14.4593 18.3334 12.2502 18.3334H7.7502C5.54106 18.3334 3.7502 16.5425 3.7502 14.3334V7.91669C2.65451 7.91669 1.66748 7.83286 1.66748 6.45835ZM10.7502 8.6667C10.7502 8.25248 10.4144 7.9167 10.0002 7.9167C9.58599 7.9167 9.2502 8.25248 9.2502 8.6667L9.2502 14.6667C9.2502 15.0809 9.58599 15.4167 10.0002 15.4167C10.4144 15.4167 10.7502 15.0809 10.7502 14.6667V8.6667ZM6.30404 7.92185C6.71769 7.90017 7.07059 8.21792 7.09227 8.63157L7.40628 14.6233C7.42796 15.037 7.11021 15.3899 6.69656 15.4116C6.28292 15.4332 5.93002 15.1155 5.90834 14.7018L5.59432 8.71007C5.57264 8.29643 5.8904 7.94353 6.30404 7.92185ZM14.4062 8.71006C14.4279 8.29641 14.1101 7.94351 13.6965 7.92184C13.2828 7.90016 12.9299 8.21791 12.9082 8.63156L12.5942 14.6233C12.5725 15.037 12.8903 15.3899 13.3039 15.4116C13.7176 15.4332 14.0705 15.1155 14.0922 14.7018L14.4062 8.71006Z" fill="#ED2C19"/>
<path d="M28.7806 15.128C28.5459 15.128 28.3432 15.0693 28.1726 14.952C28.0019 14.824 27.8952 14.6587 27.8526 14.456C27.8206 14.2427 27.8739 14.0027 28.0126 13.736L29.2926 11.24V11.88L25.0046 4.952C24.8659 4.71733 24.8072 4.49867 24.8286 4.296C24.8606 4.08267 24.9619 3.912 25.1326 3.784C25.3032 3.656 25.5166 3.592 25.7726 3.592C26.0392 3.592 26.2419 3.656 26.3806 3.784C26.5299 3.912 26.6739 4.09333 26.8126 4.328L30.2846 10.04H29.9166L32.8126 4.344C32.9192 4.14133 33.0419 3.96533 33.1806 3.816C33.3299 3.66667 33.5486 3.592 33.8366 3.592C34.0819 3.592 34.2846 3.65067 34.4446 3.768C34.6152 3.88533 34.7219 4.05067 34.7646 4.264C34.8072 4.46667 34.7539 4.70667 34.6046 4.984L29.8206 14.376C29.7246 14.568 29.5966 14.744 29.4366 14.904C29.2872 15.0533 29.0686 15.128 28.7806 15.128ZM36.3347 17.208C36.068 17.208 35.8547 17.128 35.6947 16.968C35.5454 16.8187 35.4707 16.6 35.4707 16.312V14.36C35.4707 13.7413 35.78 13.432 36.3987 13.432H37.2947L36.1107 13.848C36.388 13.4747 36.6067 13.0853 36.7667 12.68C36.9267 12.2747 37.044 11.8107 37.1187 11.288C37.1934 10.7547 37.2307 10.1253 37.2307 9.4V8.296C37.2307 7.93333 37.3267 7.656 37.5187 7.464C37.7107 7.272 37.988 7.176 38.3507 7.176H42.2067C42.5694 7.176 42.8467 7.272 43.0387 7.464C43.2307 7.656 43.3267 7.93333 43.3267 8.296V14.36L42.3987 13.432H43.6787C43.9774 13.432 44.2067 13.512 44.3667 13.672C44.5267 13.8213 44.6067 14.0507 44.6067 14.36V16.312C44.6067 16.9093 44.324 17.208 43.7587 17.208C43.4814 17.208 43.268 17.128 43.1187 16.968C42.98 16.8187 42.9107 16.6 42.9107 16.312V15H37.1667V16.312C37.1667 16.9093 36.8894 17.208 36.3347 17.208ZM38.1747 13.432H41.4547V8.712H38.9427V9.864C38.9427 10.536 38.8734 11.1867 38.7347 11.816C38.6067 12.4453 38.42 12.984 38.1747 13.432ZM48.6733 15.16C48.108 15.16 47.6013 15.0533 47.1533 14.84C46.716 14.616 46.3693 14.3173 46.1133 13.944C45.868 13.5707 45.7453 13.1493 45.7453 12.68C45.7453 12.104 45.8946 11.6507 46.1933 11.32C46.492 10.9787 46.9773 10.7333 47.6493 10.584C48.3213 10.4347 49.2226 10.36 50.3533 10.36H51.1533V11.512H50.3693C49.708 11.512 49.18 11.544 48.7853 11.608C48.3906 11.672 48.108 11.784 47.9373 11.944C47.7773 12.0933 47.6973 12.3067 47.6973 12.584C47.6973 12.936 47.82 13.224 48.0653 13.448C48.3106 13.672 48.652 13.784 49.0893 13.784C49.4413 13.784 49.7506 13.704 50.0173 13.544C50.2946 13.3733 50.5133 13.144 50.6733 12.856C50.8333 12.568 50.9133 12.2373 50.9133 11.864V10.024C50.9133 9.49067 50.796 9.10667 50.5613 8.872C50.3266 8.63733 49.932 8.52 49.3773 8.52C49.068 8.52 48.732 8.55733 48.3693 8.632C48.0173 8.70667 47.644 8.83467 47.2493 9.016C47.0466 9.112 46.8653 9.13867 46.7053 9.096C46.556 9.05333 46.4386 8.968 46.3533 8.84C46.268 8.70133 46.2253 8.552 46.2253 8.392C46.2253 8.232 46.268 8.07733 46.3533 7.928C46.4386 7.768 46.5826 7.65067 46.7853 7.576C47.276 7.37333 47.7453 7.22933 48.1933 7.144C48.652 7.05867 49.068 7.016 49.4413 7.016C50.2093 7.016 50.8386 7.13333 51.3293 7.368C51.8306 7.60267 52.204 7.96 52.4493 8.44C52.6946 8.90933 52.8173 9.51733 52.8173 10.264V14.104C52.8173 14.4347 52.7373 14.6907 52.5773 14.872C52.4173 15.0427 52.188 15.128 51.8893 15.128C51.5906 15.128 51.356 15.0427 51.1853 14.872C51.0253 14.6907 50.9453 14.4347 50.9453 14.104V13.336H51.0733C50.9986 13.7093 50.8493 14.0347 50.6253 14.312C50.412 14.5787 50.14 14.7867 49.8093 14.936C49.4786 15.0853 49.1 15.16 48.6733 15.16ZM61.3221 15.128C61.0021 15.128 60.7567 15.0427 60.5861 14.872C60.4154 14.6907 60.3301 14.4347 60.3301 14.104V8.744H57.8661V9.656C57.8661 10.392 57.8181 11.0533 57.7221 11.64C57.6367 12.2267 57.4981 12.7387 57.3061 13.176C57.1247 13.6133 56.8847 13.9813 56.5861 14.28C56.2874 14.5787 55.9301 14.8187 55.5141 15C55.2901 15.096 55.0821 15.1227 54.8901 15.08C54.7087 15.0373 54.5541 14.9573 54.4261 14.84C54.3087 14.712 54.2341 14.5627 54.2021 14.392C54.1701 14.2107 54.1914 14.0347 54.2661 13.864C54.3407 13.6933 54.4847 13.5493 54.6981 13.432C54.9647 13.2827 55.1834 13.096 55.3541 12.872C55.5247 12.648 55.6581 12.3813 55.7541 12.072C55.8501 11.752 55.9194 11.3893 55.9621 10.984C56.0047 10.5787 56.0261 10.1147 56.0261 9.592V8.296C56.0261 7.93333 56.1221 7.656 56.3141 7.464C56.5061 7.272 56.7834 7.176 57.1461 7.176H61.2101C61.5727 7.176 61.8501 7.272 62.0421 7.464C62.2341 7.656 62.3301 7.93333 62.3301 8.296V14.104C62.3301 14.4347 62.2394 14.6907 62.0581 14.872C61.8874 15.0427 61.6421 15.128 61.3221 15.128ZM65.5249 15.128C65.3223 15.128 65.1516 15.0907 65.0129 15.016C64.8743 14.9413 64.7676 14.824 64.6929 14.664C64.6289 14.504 64.5969 14.3013 64.5969 14.056V8.008C64.5969 7.69867 64.6769 7.464 64.8369 7.304C64.9969 7.13333 65.2209 7.048 65.5089 7.048C65.7969 7.048 66.0156 7.13333 66.1649 7.304C66.3249 7.464 66.4049 7.69867 66.4049 8.008V12.952H65.9889L69.9409 7.688C70.0583 7.53867 70.2023 7.39467 70.3729 7.256C70.5436 7.11733 70.7783 7.048 71.0769 7.048C71.2796 7.048 71.4449 7.08533 71.5729 7.16C71.7116 7.23467 71.8129 7.352 71.8769 7.512C71.9516 7.66133 71.9889 7.85867 71.9889 8.104V14.168C71.9889 14.4667 71.9089 14.7013 71.7489 14.872C71.5996 15.0427 71.3809 15.128 71.0929 15.128C70.7943 15.128 70.5649 15.0427 70.4049 14.872C70.2556 14.7013 70.1809 14.4667 70.1809 14.168V9.208H70.6129L66.6449 14.488C66.5383 14.6373 66.3996 14.7813 66.2289 14.92C66.0689 15.0587 65.8343 15.128 65.5249 15.128ZM76.9092 15.128C76.5892 15.128 76.3385 15.0427 76.1572 14.872C75.9865 14.6907 75.9012 14.4347 75.9012 14.104V8.744H73.9492C73.3732 8.744 73.0852 8.48267 73.0852 7.96C73.0852 7.71467 73.1599 7.52267 73.3092 7.384C73.4692 7.24533 73.6825 7.176 73.9492 7.176H79.8532C80.4292 7.176 80.7172 7.43733 80.7172 7.96C80.7172 8.216 80.6425 8.41333 80.4932 8.552C80.3439 8.68 80.1305 8.744 79.8532 8.744H77.9012V14.104C77.9012 14.4347 77.8159 14.6907 77.6452 14.872C77.4852 15.0427 77.2399 15.128 76.9092 15.128ZM82.8077 15C82.4877 15 82.2424 14.9147 82.0717 14.744C81.901 14.5733 81.8157 14.328 81.8157 14.008V8.056C81.8157 7.71467 81.901 7.464 82.0717 7.304C82.253 7.13333 82.5037 7.048 82.8237 7.048C83.1437 7.048 83.389 7.13333 83.5597 7.304C83.7304 7.464 83.8157 7.71467 83.8157 8.056V9.768H85.8797C86.9144 9.768 87.693 9.98667 88.2157 10.424C88.749 10.8613 89.0157 11.5013 89.0157 12.344C89.0157 12.8773 88.8877 13.3467 88.6317 13.752C88.3757 14.1467 88.013 14.456 87.5437 14.68C87.085 14.8933 86.5304 15 85.8797 15H82.8077ZM83.8157 13.688H85.5757C86.077 13.688 86.4664 13.5813 86.7437 13.368C87.021 13.144 87.1597 12.808 87.1597 12.36C87.1597 11.9227 87.021 11.6027 86.7437 11.4C86.4664 11.1867 86.077 11.08 85.5757 11.08H83.8157V13.688Z" fill="#ED2C19"/>
</svg>
